# xmcd
#
# Track frame offsets:
#	150
#	24030
#	35195
#	59595
#	85210
#	99890
#	116337
#	133777
#	148005
#	162020
#	184102
#	207612
#	223257
#	237072
#	267647
#
# Disc length: 3904
#
# Revision: 5
# Processed by: cddbd v1.5.1PL0 Copyright (c) Steve Scherf et al.
# Submitted via: CDex 1.40Release
# Normalized: r4:DSETVAR1,TDELIM( - )
#
DISCID=db0f3e0f
DTITLE=Various Artist - Destination GB Clues
DYEAR=1998
DGENRE=Blues
TTITLE0=House of the Rising Sun - Alan Prince
TTITLE1=Homework - Nine Below Zero
TTITLE2=Fat City - The Blues Band
TTITLE3=I'd Rather Go Blind - Stan Webb's Chicken Shack
TTITLE4=Nine By Nine - John Drummer Blues Band
TTITLE5=Work Song - Paul Jones
TTITLE6=Everyday Since You've Been Gone - Power and Dick Heckstall-Smith
TTITLE7=Texas Hop - Paul Lamb
TTITLE8=Meet Me In The Bottom - Brian Knight - Tony Vines
TTITLE9=Groundhog Blues - Groundhogs
TTITLE10=Trying So Hard To Forget - Duster Bennett Featuring Peter Green
TTITLE11=Let's Talk It Over - Dave Kelly
TTITLE12=Long Black Train - Alexis Corner
TTITLE13=Billy The Kid - Mick Abraham's Bloodwyn Pig
TTITLE14=Out Of Time - Chris Farlowe
EXTD=YEAR: 1998 ID3G: 0
EXTT0=
EXTT1=
EXTT2=
EXTT3=
EXTT4=
EXTT5=
EXTT6=
EXTT7=
EXTT8=
EXTT9=
EXTT10=
EXTT11=
EXTT12=
EXTT13=
EXTT14=
PLAYORDER=
